<mxfile host="app.diagrams.net" modified="2023-02-24T02:38:32.179Z" agent="5.0 (Macintosh; Intel Mac OS X 10_15_7) AppleWebKit/537.36 (KHTML, like Gecko) Chrome/109.0.0.0 Safari/537.36" etag="JIUMaWgGXL0Sfm-McliP" version="20.8.16" type="github">
  <diagram name="Page-1" id="5YIQ6j-aH4ark_wvlMyv">
    <mxGraphModel dx="1434" dy="739" grid="1" gridSize="10" guides="1" tooltips="1" connect="1" arrows="1" fold="1" page="1" pageScale="1" pageWidth="850" pageHeight="1100" math="0" shadow="0">
      <root>
        <mxCell id="0" />
        <mxCell id="1" parent="0" />
        <mxCell id="0PErs6EqMwl34GyTN1hK-1" value="BumpingFilter" style="shape=umlLifeline;perimeter=lifelinePerimeter;whiteSpace=wrap;html=1;container=1;collapsible=0;recursiveResize=0;outlineConnect=0;fillColor=#d5e8d4;strokeColor=#82b366;" vertex="1" parent="1">
          <mxGeometry x="150" y="30" width="100" height="1010" as="geometry" />
        </mxCell>
        <mxCell id="0PErs6EqMwl34GyTN1hK-9" value="new request" style="html=1;verticalAlign=bottom;startArrow=oval;endArrow=block;startSize=8;rounded=0;" edge="1" parent="0PErs6EqMwl34GyTN1hK-1">
          <mxGeometry relative="1" as="geometry">
            <mxPoint x="-120" y="208" as="sourcePoint" />
            <mxPoint x="49.5" y="208" as="targetPoint" />
          </mxGeometry>
        </mxCell>
        <mxCell id="0PErs6EqMwl34GyTN1hK-11" value="" style="html=1;points=[];perimeter=orthogonalPerimeter;" vertex="1" parent="0PErs6EqMwl34GyTN1hK-1">
          <mxGeometry x="45" y="324" width="10" height="60" as="geometry" />
        </mxCell>
        <mxCell id="0PErs6EqMwl34GyTN1hK-21" value="" style="html=1;points=[];perimeter=orthogonalPerimeter;" vertex="1" parent="0PErs6EqMwl34GyTN1hK-1">
          <mxGeometry x="45" y="428" width="10" height="80" as="geometry" />
        </mxCell>
        <mxCell id="0PErs6EqMwl34GyTN1hK-27" value="" style="html=1;points=[];perimeter=orthogonalPerimeter;" vertex="1" parent="0PErs6EqMwl34GyTN1hK-1">
          <mxGeometry x="45" y="678" width="10" height="60" as="geometry" />
        </mxCell>
        <mxCell id="0PErs6EqMwl34GyTN1hK-31" value="" style="html=1;points=[];perimeter=orthogonalPerimeter;" vertex="1" parent="0PErs6EqMwl34GyTN1hK-1">
          <mxGeometry x="45" y="80" width="10" height="50" as="geometry" />
        </mxCell>
        <mxCell id="0PErs6EqMwl34GyTN1hK-32" value="initialize" style="html=1;verticalAlign=bottom;endArrow=block;entryX=0;entryY=0;rounded=0;" edge="1" target="0PErs6EqMwl34GyTN1hK-31" parent="0PErs6EqMwl34GyTN1hK-1">
          <mxGeometry relative="1" as="geometry">
            <mxPoint x="-25" y="80" as="sourcePoint" />
          </mxGeometry>
        </mxCell>
        <mxCell id="0PErs6EqMwl34GyTN1hK-33" value="return" style="html=1;verticalAlign=bottom;endArrow=open;dashed=1;endSize=8;rounded=0;" edge="1" source="0PErs6EqMwl34GyTN1hK-31" parent="0PErs6EqMwl34GyTN1hK-1">
          <mxGeometry relative="1" as="geometry">
            <mxPoint x="-30" y="130" as="targetPoint" />
          </mxGeometry>
        </mxCell>
        <mxCell id="0PErs6EqMwl34GyTN1hK-45" value="" style="html=1;points=[];perimeter=orthogonalPerimeter;" vertex="1" parent="0PErs6EqMwl34GyTN1hK-1">
          <mxGeometry x="45" y="970" width="10" height="40" as="geometry" />
        </mxCell>
        <mxCell id="0PErs6EqMwl34GyTN1hK-2" value="BumpingCertProvider" style="shape=umlLifeline;perimeter=lifelinePerimeter;whiteSpace=wrap;html=1;container=1;collapsible=0;recursiveResize=0;outlineConnect=0;fillColor=#d5e8d4;strokeColor=#82b366;" vertex="1" parent="1">
          <mxGeometry x="390" y="30" width="170" height="1020" as="geometry" />
        </mxCell>
        <mxCell id="0PErs6EqMwl34GyTN1hK-18" value="" style="html=1;points=[];perimeter=orthogonalPerimeter;" vertex="1" parent="0PErs6EqMwl34GyTN1hK-2">
          <mxGeometry x="80" y="228" width="10" height="60" as="geometry" />
        </mxCell>
        <mxCell id="0PErs6EqMwl34GyTN1hK-24" value="" style="html=1;points=[];perimeter=orthogonalPerimeter;" vertex="1" parent="0PErs6EqMwl34GyTN1hK-2">
          <mxGeometry x="80" y="548" width="10" height="80" as="geometry" />
        </mxCell>
        <mxCell id="0PErs6EqMwl34GyTN1hK-35" value="" style="html=1;points=[];perimeter=orthogonalPerimeter;" vertex="1" parent="0PErs6EqMwl34GyTN1hK-2">
          <mxGeometry x="80" y="80" width="10" height="90" as="geometry" />
        </mxCell>
        <mxCell id="0PErs6EqMwl34GyTN1hK-36" value="initialize" style="html=1;verticalAlign=bottom;endArrow=block;entryX=0;entryY=0;rounded=0;" edge="1" parent="0PErs6EqMwl34GyTN1hK-2" target="0PErs6EqMwl34GyTN1hK-35">
          <mxGeometry relative="1" as="geometry">
            <mxPoint x="10" y="80" as="sourcePoint" />
          </mxGeometry>
        </mxCell>
        <mxCell id="0PErs6EqMwl34GyTN1hK-37" value="return" style="html=1;verticalAlign=bottom;endArrow=open;dashed=1;endSize=8;rounded=0;" edge="1" parent="0PErs6EqMwl34GyTN1hK-2">
          <mxGeometry relative="1" as="geometry">
            <mxPoint x="5" y="163" as="targetPoint" />
            <mxPoint x="80" y="163" as="sourcePoint" />
          </mxGeometry>
        </mxCell>
        <mxCell id="0PErs6EqMwl34GyTN1hK-63" value="" style="html=1;points=[];perimeter=orthogonalPerimeter;" vertex="1" parent="0PErs6EqMwl34GyTN1hK-2">
          <mxGeometry x="80" y="900" width="10" height="120" as="geometry" />
        </mxCell>
        <mxCell id="0PErs6EqMwl34GyTN1hK-69" value="reload downstream socket config" style="html=1;verticalAlign=bottom;endArrow=block;rounded=0;" edge="1" parent="0PErs6EqMwl34GyTN1hK-2">
          <mxGeometry relative="1" as="geometry">
            <mxPoint x="80" y="920" as="sourcePoint" />
            <mxPoint x="-90" y="920" as="targetPoint" />
          </mxGeometry>
        </mxCell>
        <mxCell id="0PErs6EqMwl34GyTN1hK-3" value="BumpingCertProviderServiceClient" style="shape=umlLifeline;perimeter=lifelinePerimeter;whiteSpace=wrap;html=1;container=1;collapsible=0;recursiveResize=0;outlineConnect=0;fillColor=#d5e8d4;strokeColor=#82b366;" vertex="1" parent="1">
          <mxGeometry x="630" y="30" width="250" height="1030" as="geometry" />
        </mxCell>
        <mxCell id="0PErs6EqMwl34GyTN1hK-16" value="" style="html=1;points=[];perimeter=orthogonalPerimeter;" vertex="1" parent="0PErs6EqMwl34GyTN1hK-3">
          <mxGeometry x="120" y="248" width="10" height="80" as="geometry" />
        </mxCell>
        <mxCell id="0PErs6EqMwl34GyTN1hK-17" value="dispatch" style="html=1;verticalAlign=bottom;startArrow=oval;endArrow=block;startSize=8;rounded=0;" edge="1" target="0PErs6EqMwl34GyTN1hK-16" parent="0PErs6EqMwl34GyTN1hK-3">
          <mxGeometry relative="1" as="geometry">
            <mxPoint x="60" y="248" as="sourcePoint" />
          </mxGeometry>
        </mxCell>
        <mxCell id="0PErs6EqMwl34GyTN1hK-39" value="" style="html=1;points=[];perimeter=orthogonalPerimeter;" vertex="1" parent="0PErs6EqMwl34GyTN1hK-3">
          <mxGeometry x="120" y="90" width="10" height="60" as="geometry" />
        </mxCell>
        <mxCell id="0PErs6EqMwl34GyTN1hK-48" value="" style="html=1;points=[];perimeter=orthogonalPerimeter;" vertex="1" parent="0PErs6EqMwl34GyTN1hK-3">
          <mxGeometry x="120" y="770" width="10" height="80" as="geometry" />
        </mxCell>
        <mxCell id="0PErs6EqMwl34GyTN1hK-60" value="" style="html=1;points=[];perimeter=orthogonalPerimeter;" vertex="1" parent="0PErs6EqMwl34GyTN1hK-3">
          <mxGeometry x="120" y="890" width="10" height="140" as="geometry" />
        </mxCell>
        <mxCell id="0PErs6EqMwl34GyTN1hK-4" value="BumpingCertProviderServiceServer" style="shape=umlLifeline;perimeter=lifelinePerimeter;whiteSpace=wrap;html=1;container=1;collapsible=0;recursiveResize=0;outlineConnect=0;fillColor=#dae8fc;strokeColor=#6c8ebf;" vertex="1" parent="1">
          <mxGeometry x="930" y="30" width="250" height="1060" as="geometry" />
        </mxCell>
        <mxCell id="0PErs6EqMwl34GyTN1hK-42" value="" style="html=1;points=[];perimeter=orthogonalPerimeter;" vertex="1" parent="0PErs6EqMwl34GyTN1hK-4">
          <mxGeometry x="120" y="100" width="10" height="40" as="geometry" />
        </mxCell>
        <mxCell id="0PErs6EqMwl34GyTN1hK-51" value="" style="html=1;points=[];perimeter=orthogonalPerimeter;" vertex="1" parent="0PErs6EqMwl34GyTN1hK-4">
          <mxGeometry x="120" y="780" width="10" height="60" as="geometry" />
        </mxCell>
        <mxCell id="0PErs6EqMwl34GyTN1hK-57" value="" style="html=1;points=[];perimeter=orthogonalPerimeter;" vertex="1" parent="0PErs6EqMwl34GyTN1hK-4">
          <mxGeometry x="120" y="880" width="10" height="160" as="geometry" />
        </mxCell>
        <mxCell id="0PErs6EqMwl34GyTN1hK-5" value="CustomCA" style="shape=umlLifeline;perimeter=lifelinePerimeter;whiteSpace=wrap;html=1;container=1;collapsible=0;recursiveResize=0;outlineConnect=0;fillColor=#ffe6cc;strokeColor=#d79b00;" vertex="1" parent="1">
          <mxGeometry x="1240" y="30" width="160" height="1100" as="geometry" />
        </mxCell>
        <mxCell id="0PErs6EqMwl34GyTN1hK-54" value="" style="html=1;points=[];perimeter=orthogonalPerimeter;" vertex="1" parent="0PErs6EqMwl34GyTN1hK-5">
          <mxGeometry x="75" y="790" width="10" height="40" as="geometry" />
        </mxCell>
        <mxCell id="0PErs6EqMwl34GyTN1hK-12" value="on cache hit callback: continue downstream handshake" style="html=1;verticalAlign=bottom;endArrow=block;entryX=1;entryY=0;rounded=0;" edge="1" target="0PErs6EqMwl34GyTN1hK-11" parent="1">
          <mxGeometry relative="1" as="geometry">
            <mxPoint x="474.5" y="354" as="sourcePoint" />
          </mxGeometry>
        </mxCell>
        <mxCell id="0PErs6EqMwl34GyTN1hK-19" value="add callbacks without upstream connection info" style="html=1;verticalAlign=bottom;endArrow=block;entryX=0;entryY=0;rounded=0;" edge="1" target="0PErs6EqMwl34GyTN1hK-18" parent="1">
          <mxGeometry relative="1" as="geometry">
            <mxPoint x="199.5" y="258" as="sourcePoint" />
          </mxGeometry>
        </mxCell>
        <mxCell id="0PErs6EqMwl34GyTN1hK-20" value="return" style="html=1;verticalAlign=bottom;endArrow=open;dashed=1;endSize=8;exitX=0;exitY=0.95;rounded=0;" edge="1" source="0PErs6EqMwl34GyTN1hK-18" parent="1">
          <mxGeometry relative="1" as="geometry">
            <mxPoint x="199.5" y="315" as="targetPoint" />
          </mxGeometry>
        </mxCell>
        <mxCell id="0PErs6EqMwl34GyTN1hK-13" value="return" style="html=1;verticalAlign=bottom;endArrow=open;dashed=1;endSize=8;exitX=1;exitY=0.95;rounded=0;" edge="1" source="0PErs6EqMwl34GyTN1hK-11" parent="1">
          <mxGeometry relative="1" as="geometry">
            <mxPoint x="474.5" y="411" as="targetPoint" />
          </mxGeometry>
        </mxCell>
        <mxCell id="0PErs6EqMwl34GyTN1hK-22" value="on cache miss callback: establish upstream connection" style="html=1;verticalAlign=bottom;endArrow=block;entryX=1;entryY=0;rounded=0;" edge="1" target="0PErs6EqMwl34GyTN1hK-21" parent="1">
          <mxGeometry relative="1" as="geometry">
            <mxPoint x="474.5" y="458" as="sourcePoint" />
          </mxGeometry>
        </mxCell>
        <mxCell id="0PErs6EqMwl34GyTN1hK-23" value="return" style="html=1;verticalAlign=bottom;endArrow=open;dashed=1;endSize=8;exitX=1;exitY=0.95;rounded=0;" edge="1" source="0PErs6EqMwl34GyTN1hK-21" parent="1">
          <mxGeometry relative="1" as="geometry">
            <mxPoint x="474.5" y="534" as="targetPoint" />
          </mxGeometry>
        </mxCell>
        <mxCell id="0PErs6EqMwl34GyTN1hK-25" value="add callbacks with upstream connection info" style="html=1;verticalAlign=bottom;endArrow=block;entryX=0;entryY=0;rounded=0;" edge="1" target="0PErs6EqMwl34GyTN1hK-24" parent="1">
          <mxGeometry relative="1" as="geometry">
            <mxPoint x="199.5" y="578" as="sourcePoint" />
          </mxGeometry>
        </mxCell>
        <mxCell id="0PErs6EqMwl34GyTN1hK-26" value="return" style="html=1;verticalAlign=bottom;endArrow=open;dashed=1;endSize=8;exitX=0;exitY=0.95;rounded=0;" edge="1" source="0PErs6EqMwl34GyTN1hK-24" parent="1">
          <mxGeometry relative="1" as="geometry">
            <mxPoint x="199.5" y="654" as="targetPoint" />
          </mxGeometry>
        </mxCell>
        <mxCell id="0PErs6EqMwl34GyTN1hK-28" value="on cache hit callback: continue downstream handshake" style="html=1;verticalAlign=bottom;endArrow=block;entryX=1;entryY=0;rounded=0;" edge="1" target="0PErs6EqMwl34GyTN1hK-27" parent="1">
          <mxGeometry relative="1" as="geometry">
            <mxPoint x="474.5" y="708" as="sourcePoint" />
          </mxGeometry>
        </mxCell>
        <mxCell id="0PErs6EqMwl34GyTN1hK-29" value="return" style="html=1;verticalAlign=bottom;endArrow=open;dashed=1;endSize=8;exitX=1;exitY=0.95;rounded=0;" edge="1" source="0PErs6EqMwl34GyTN1hK-27" parent="1">
          <mxGeometry relative="1" as="geometry">
            <mxPoint x="474.5" y="765" as="targetPoint" />
          </mxGeometry>
        </mxCell>
        <mxCell id="0PErs6EqMwl34GyTN1hK-40" value="initialize" style="html=1;verticalAlign=bottom;endArrow=block;entryX=0;entryY=0;rounded=0;" edge="1" target="0PErs6EqMwl34GyTN1hK-39" parent="1" source="0PErs6EqMwl34GyTN1hK-35">
          <mxGeometry relative="1" as="geometry">
            <mxPoint x="680" y="100" as="sourcePoint" />
          </mxGeometry>
        </mxCell>
        <mxCell id="0PErs6EqMwl34GyTN1hK-41" value="return" style="html=1;verticalAlign=bottom;endArrow=open;dashed=1;endSize=8;exitX=0;exitY=0.95;rounded=0;" edge="1" parent="1">
          <mxGeometry relative="1" as="geometry">
            <mxPoint x="480" y="181" as="targetPoint" />
            <mxPoint x="750" y="181" as="sourcePoint" />
          </mxGeometry>
        </mxCell>
        <mxCell id="0PErs6EqMwl34GyTN1hK-43" value="async subscribe certificates" style="html=1;verticalAlign=bottom;endArrow=block;entryX=0;entryY=0;rounded=0;" edge="1" target="0PErs6EqMwl34GyTN1hK-42" parent="1" source="0PErs6EqMwl34GyTN1hK-39">
          <mxGeometry relative="1" as="geometry">
            <mxPoint x="980" y="130" as="sourcePoint" />
          </mxGeometry>
        </mxCell>
        <mxCell id="0PErs6EqMwl34GyTN1hK-44" value="return" style="html=1;verticalAlign=bottom;endArrow=open;dashed=1;endSize=8;exitX=0;exitY=0.95;rounded=0;" edge="1" source="0PErs6EqMwl34GyTN1hK-42" parent="1" target="0PErs6EqMwl34GyTN1hK-39">
          <mxGeometry relative="1" as="geometry">
            <mxPoint x="980" y="206" as="targetPoint" />
          </mxGeometry>
        </mxCell>
        <mxCell id="0PErs6EqMwl34GyTN1hK-49" value="on cache miss: create certificate" style="html=1;verticalAlign=bottom;endArrow=block;entryX=0;entryY=0;rounded=0;" edge="1" target="0PErs6EqMwl34GyTN1hK-48" parent="1" source="0PErs6EqMwl34GyTN1hK-2">
          <mxGeometry relative="1" as="geometry">
            <mxPoint x="680" y="768" as="sourcePoint" />
          </mxGeometry>
        </mxCell>
        <mxCell id="0PErs6EqMwl34GyTN1hK-50" value="return" style="html=1;verticalAlign=bottom;endArrow=open;dashed=1;endSize=8;exitX=0;exitY=0.95;rounded=0;" edge="1" source="0PErs6EqMwl34GyTN1hK-48" parent="1" target="0PErs6EqMwl34GyTN1hK-2">
          <mxGeometry relative="1" as="geometry">
            <mxPoint x="680" y="844" as="targetPoint" />
          </mxGeometry>
        </mxCell>
        <mxCell id="0PErs6EqMwl34GyTN1hK-52" value="async create certificate" style="html=1;verticalAlign=bottom;endArrow=block;entryX=0;entryY=0;rounded=0;" edge="1" target="0PErs6EqMwl34GyTN1hK-51" parent="1" source="0PErs6EqMwl34GyTN1hK-48">
          <mxGeometry relative="1" as="geometry">
            <mxPoint x="810" y="910" as="sourcePoint" />
          </mxGeometry>
        </mxCell>
        <mxCell id="0PErs6EqMwl34GyTN1hK-53" value="return" style="html=1;verticalAlign=bottom;endArrow=open;dashed=1;endSize=8;exitX=0;exitY=0.95;rounded=0;" edge="1" source="0PErs6EqMwl34GyTN1hK-51" parent="1" target="0PErs6EqMwl34GyTN1hK-48">
          <mxGeometry relative="1" as="geometry">
            <mxPoint x="810" y="986" as="targetPoint" />
          </mxGeometry>
        </mxCell>
        <mxCell id="0PErs6EqMwl34GyTN1hK-55" value="async send CSR request" style="html=1;verticalAlign=bottom;endArrow=block;entryX=0;entryY=0;rounded=0;" edge="1" target="0PErs6EqMwl34GyTN1hK-54" parent="1" source="0PErs6EqMwl34GyTN1hK-51">
          <mxGeometry relative="1" as="geometry">
            <mxPoint x="1170" y="900" as="sourcePoint" />
          </mxGeometry>
        </mxCell>
        <mxCell id="0PErs6EqMwl34GyTN1hK-56" value="return" style="html=1;verticalAlign=bottom;endArrow=open;dashed=1;endSize=8;exitX=0;exitY=0.95;rounded=0;" edge="1" source="0PErs6EqMwl34GyTN1hK-54" parent="1" target="0PErs6EqMwl34GyTN1hK-51">
          <mxGeometry relative="1" as="geometry">
            <mxPoint x="1170" y="976" as="targetPoint" />
          </mxGeometry>
        </mxCell>
        <mxCell id="0PErs6EqMwl34GyTN1hK-58" value="mimicked cert" style="html=1;verticalAlign=bottom;endArrow=block;entryX=1;entryY=0;rounded=0;" edge="1" target="0PErs6EqMwl34GyTN1hK-57" parent="1" source="0PErs6EqMwl34GyTN1hK-5">
          <mxGeometry relative="1" as="geometry">
            <mxPoint x="1120" y="910" as="sourcePoint" />
          </mxGeometry>
        </mxCell>
        <mxCell id="0PErs6EqMwl34GyTN1hK-59" value="return" style="html=1;verticalAlign=bottom;endArrow=open;dashed=1;endSize=8;exitX=1;exitY=0.95;rounded=0;" edge="1" source="0PErs6EqMwl34GyTN1hK-57" parent="1" target="0PErs6EqMwl34GyTN1hK-5">
          <mxGeometry relative="1" as="geometry">
            <mxPoint x="1120" y="967" as="targetPoint" />
          </mxGeometry>
        </mxCell>
        <mxCell id="0PErs6EqMwl34GyTN1hK-61" value="update certificates" style="html=1;verticalAlign=bottom;endArrow=block;entryX=1;entryY=0;rounded=0;" edge="1" target="0PErs6EqMwl34GyTN1hK-60" parent="1" source="0PErs6EqMwl34GyTN1hK-57">
          <mxGeometry relative="1" as="geometry">
            <mxPoint x="820" y="920" as="sourcePoint" />
          </mxGeometry>
        </mxCell>
        <mxCell id="0PErs6EqMwl34GyTN1hK-62" value="return" style="html=1;verticalAlign=bottom;endArrow=open;dashed=1;endSize=8;exitX=1;exitY=0.95;rounded=0;" edge="1" source="0PErs6EqMwl34GyTN1hK-60" parent="1" target="0PErs6EqMwl34GyTN1hK-57">
          <mxGeometry relative="1" as="geometry">
            <mxPoint x="820" y="977" as="targetPoint" />
          </mxGeometry>
        </mxCell>
        <mxCell id="0PErs6EqMwl34GyTN1hK-46" value="on cache miss callback: refresh downstream socket" style="html=1;verticalAlign=bottom;endArrow=block;rounded=0;" edge="1" parent="1" target="0PErs6EqMwl34GyTN1hK-45">
          <mxGeometry relative="1" as="geometry">
            <mxPoint x="470" y="1010" as="sourcePoint" />
          </mxGeometry>
        </mxCell>
        <mxCell id="0PErs6EqMwl34GyTN1hK-47" value="return" style="html=1;verticalAlign=bottom;endArrow=open;dashed=1;endSize=8;exitX=1;exitY=0.95;rounded=0;" edge="1" parent="1" source="0PErs6EqMwl34GyTN1hK-45">
          <mxGeometry relative="1" as="geometry">
            <mxPoint x="470" y="1038" as="targetPoint" />
          </mxGeometry>
        </mxCell>
        <mxCell id="0PErs6EqMwl34GyTN1hK-64" value="run registered callbacks" style="html=1;verticalAlign=bottom;endArrow=block;entryX=1;entryY=0;rounded=0;" edge="1" target="0PErs6EqMwl34GyTN1hK-63" parent="1" source="0PErs6EqMwl34GyTN1hK-60">
          <mxGeometry relative="1" as="geometry">
            <mxPoint x="539.5" y="910" as="sourcePoint" />
          </mxGeometry>
        </mxCell>
        <mxCell id="0PErs6EqMwl34GyTN1hK-65" value="return" style="html=1;verticalAlign=bottom;endArrow=open;dashed=1;endSize=8;exitX=1;exitY=0.95;rounded=0;" edge="1" source="0PErs6EqMwl34GyTN1hK-63" parent="1" target="0PErs6EqMwl34GyTN1hK-60">
          <mxGeometry relative="1" as="geometry">
            <mxPoint x="539.5" y="967" as="targetPoint" />
          </mxGeometry>
        </mxCell>
      </root>
    </mxGraphModel>
  </diagram>
</mxfile>
